<?xml version="1.0" encoding="utf-8"?>
<!-- Generator: Adobe Illustrator 21.0.2, SVG Export Plug-In . SVG Version: 6.00 Build 0)  -->
<svg version="1.1" id="Layer_1" xmlns="http://www.w3.org/2000/svg" xmlns:xlink="http://www.w3.org/1999/xlink" x="0px" y="0px"
	 viewBox="0 0 300 300" style="enable-background:new 0 0 300 300;" xml:space="preserve">
<style type="text/css">
	.st0{fill:#111010;}
	.st1{fill:#D7DAE1;}
	.st2{fill:#0039A6;}
	.st3{fill:#808183;}
</style>
<rect y="0" class="st0" width="300" height="300"/>
<g>
	<g>
		<path class="st1" d="M257.4,108c11.3,20.8,5.8,95.8-11.5,109.2c-6.8,5.3,4.7-22-8.6-41.4c-5.5-8.1-32.8-13.9-39.3-16.4
			c-6.9-2.7-47.1,0.6-87.3-25.6c-9.2-6-18.6-1.3-26.5,2.4c-35.5,16.6-30.4,95.1-35.8,77.2C25.3,135.8,42.2,104,50.1,91.4
			c18.8-30.1,70.5-48.6,81.4-55.1C166.8,15,240.6,77.2,257.4,108z"/>
		<path class="st1" d="M236.8,159.2c-8.5-2.6-31.2-4.3-46-3.4c-13.8,0.8-30.8,5.2-41.6,5.9c-18.4-0.6-26.3-5.1-40.1-5.9
			c-14.7-0.9-37.4,0.9-46,3.4c0,0-0.1,1.6-0.1,4.3c0,4.2-0.1,10.9,0.3,18.1c0.1,1.5,0.1,3,0.2,4.6c0,0,4.3,1.7,6,6.6
			c1.7,4.9,2.3,20.8,26.7,21.2c25.6,0.4,39.3-1.1,43.4-28.2c0,0,1.6-10.6,9.7-9.7c7.1,0,8.7,9.8,8.7,9.8c4.2,28.7,19.3,29,44.9,28.1
			c23.1-0.8,26.2-16,27.9-20.9c1.7-4.9,5.5-6.9,5.5-6.9C237.2,172.7,236.8,159.2,236.8,159.2z M134.2,185.1
			c-3.1,13.7-8.1,22.6-23.4,23.2c-15.5,0.6-33.6,2.4-37.4-21.9c-1-6.3-4-22.3,11.9-23.4c16-1.1,34.9,1.5,40,2.9
			C130.5,167.3,137.9,168.6,134.2,185.1z M226.9,185.5c-1.5,20.1-17.1,22.3-26.8,22.8c-9.7,0.5-33.4,1.1-36.4-20.5
			c-2.5-18.2,4.2-21.2,6.6-21.8c12.5-3.3,36.2-4.2,44-3.1C222,164,228.6,162.7,226.9,185.5z"/>
	</g>
	<g>
		<g>
			<circle class="st2" cx="128.6" cy="249.3" r="18.8"/>
			<g>
				<path class="st1" d="M122,240.6c1.8-1.8,4-2.7,6.7-2.7c3.6,0,6.3,1.2,8,3.6c0.9,1.4,1.4,2.7,1.5,4.1h-4.6
					c-0.3-1-0.7-1.8-1.1-2.4c-0.8-0.9-2-1.4-3.6-1.4c-1.6,0-2.9,0.7-3.8,2c-0.9,1.3-1.4,3.2-1.4,5.7s0.5,4.3,1.5,5.5
					c1,1.2,2.3,1.8,3.8,1.8c1.6,0,2.8-0.5,3.6-1.6c0.5-0.6,0.8-1.4,1.1-2.5h4.5c-0.4,2.4-1.4,4.3-3,5.8c-1.6,1.5-3.7,2.2-6.2,2.2
					c-3.1,0-5.6-1-7.3-3c-1.8-2-2.7-4.8-2.7-8.3C119,245.6,120,242.6,122,240.6z"/>
			</g>
		</g>
		<g>
			<circle class="st3" cx="171.4" cy="249.3" r="18.8"/>
			<g>
				<path class="st1" d="M166.8,253.4c0.1,1,0.4,1.7,0.8,2.2c0.7,0.9,2,1.3,3.8,1.3c1.1,0,1.9-0.1,2.6-0.3c1.3-0.4,1.9-1.3,1.9-2.5
					c0-0.7-0.3-1.3-0.9-1.6c-0.6-0.4-1.6-0.7-3-1l-2.3-0.5c-2.3-0.5-3.8-1-4.7-1.6c-1.4-1-2.2-2.5-2.2-4.6c0-1.9,0.7-3.5,2.1-4.8
					c1.4-1.3,3.5-1.9,6.2-1.9c2.3,0,4.2,0.6,5.8,1.8c1.6,1.2,2.5,2.9,2.5,5.2h-4.3c-0.1-1.3-0.7-2.2-1.7-2.7
					c-0.7-0.4-1.6-0.5-2.7-0.5c-1.2,0-2.1,0.2-2.8,0.7c-0.7,0.5-1.1,1.1-1.1,1.9c0,0.8,0.3,1.3,1,1.7c0.4,0.3,1.4,0.5,2.8,0.9
					l3.7,0.9c1.6,0.4,2.9,0.9,3.7,1.6c1.3,1,1.9,2.5,1.9,4.4c0,2-0.8,3.6-2.3,4.9s-3.6,1.9-6.4,1.9c-2.8,0-5-0.6-6.6-1.9
					c-1.6-1.3-2.4-3-2.4-5.2H166.8z"/>
			</g>
		</g>
	</g>
</g>
</svg>
